<?xml version="1.0" encoding="UTF-8" standalone="no"?>
<svg width="346px" height="82px" viewBox="0 0 346 82" version="1.1" xmlns="http://www.w3.org/2000/svg" xmlns:xlink="http://www.w3.org/1999/xlink">
    <!-- Generator: Sketch 40.1 (33804) - http://www.bohemiancoding.com/sketch -->
    <title>TNY</title>
    <desc>Created with Sketch.</desc>
    <defs></defs>
    <g id="Page-1" stroke="none" stroke-width="1" fill="none" fill-rule="evenodd">
        <g id="new-header" transform="translate(-524.000000, -219.000000)" fill="#221F20">
            <g id="TNY" transform="translate(524.000000, 219.000000)">
                <polygon id="Fill-1" points="30.8419558 30.867299 30.8419558 62.4310514 6.00181129 30.867299 0.0971611738 30.867299 0.00031241535 79.4167657 3.90862844 79.4167657 3.90862844 40.4269371 34.6268677 80.0555848 34.6268677 30.867299"></polygon>
                <g id="Group-24" transform="translate(40.613995, 0.395943)">
                    <path d="M0.592651919,30.4715905 L18.3066023,30.4715905 L20.8371666,36.0944476 C20.8371666,36.0944476 17.8684397,33.1408857 12.3082275,33.1408857 L8.01485959,33.1408857 L8.01485959,50.2445238 L15.2136903,50.2445238 C18.870512,50.2445238 19.4141147,49.8876286 20.8371666,48.4647333 L20.8371666,55.6799524 C20.8371666,55.6799524 19.2438483,53.243381 15.2136903,53.243381 L8.01485959,53.243381 L8.01485959,75.7355905 L18.0254284,75.7355905 C27.7259251,75.7355905 32.6777084,71.7058762 32.6777084,71.7058762 L29.1169544,79.0155905 L0.503613544,79.0210571 L0.592651919,30.4715905 Z" id="Fill-2"></path>
                    <path d="M246.83476,30.4715905 L266.487247,30.4715905 L269.017812,36.0944476 C269.017812,36.0944476 266.242001,33.1401048 260.077265,33.1401048 L253.611049,33.1401048 L253.611049,50.2445238 L261.456579,50.2445238 C264.310493,50.2445238 265.193848,49.9883714 266.288864,48.8934762 L266.288864,54.6451905 C266.288864,54.6451905 265.486737,52.9622381 261.456579,52.9622381 L253.611049,52.9622381 L253.611049,75.7355905 L258.353514,75.7355905 C266.901979,75.7355905 270.206552,73.1631333 270.206552,73.1631333 L265.877256,79.0155905 L246.746502,79.0210571 L246.83476,30.4715905 Z" id="Fill-4"></path>
                    <polygon id="Fill-6" points="23.0214966 30.4715905 30.5069684 30.4715905 46.6479074 66.0705238 50.0329278 58.5858762 37.6659661 30.4715905 44.8257449 30.4715905 53.8076862 49.4752857 62.3991084 30.4715905 66.0442144 30.4715905 55.8251084 54.6162952 61.0322912 66.0705238 76.7178849 30.4715905 81.0792032 30.4715905 59.4702144 79.4115333 51.9855237 63.5324286 44.6953115 79.4763524"></polygon>
                    <path d="M128.515881,54.0801714 C128.515881,65.4445905 134.916491,77.8765714 149.462549,77.8765714 C162.901096,77.8765714 168.245741,66.8604571 168.245741,54.3745905 C168.245741,44.3588762 161.460861,31.6605905 148.2824,31.6605905 C139.048184,31.6605905 128.515881,38.9460952 128.515881,54.0801714 M148.577633,28.8093333 C165.294978,28.8093333 175.452382,40.5915619 175.452382,53.6865714 C175.452382,70.5910667 166.276744,81.2190476 148.971276,81.2190476 C131.662685,81.2190476 121.337358,68.142 121.337358,55.1617905 C121.337358,40.5111238 132.25315,28.8093333 148.577633,28.8093333" id="Fill-8"></path>
                    <path d="M181.204652,30.4715905 L192.595316,30.4715905 C198.587442,30.4715905 203.594679,33.9452667 203.594679,40.3639143 C203.594679,47.9313429 198.019627,49.896219 194.222219,51.1020095 C201.124255,52.2523524 203.659505,55.5596857 203.659505,64.8334952 C203.659505,74.0885619 206.013555,77.5239714 208.134855,77.5239714 C209.768787,77.5239714 211.044223,76.4462571 211.499568,75.7043524 L212.446187,76.3525429 C212.168918,76.7875333 210.25225,79.8020095 205.807361,79.8020095 C201.381997,79.8020095 197.996977,75.7027905 197.996977,66.0705238 C197.996977,52.1438 194.232372,51.8829619 191.228498,51.8829619 L191.228498,50.8419524 C191.319099,50.8208667 197.672065,49.4612286 197.672065,41.6657619 C197.672065,34.2943524 193.245921,33.1401048 191.423758,33.1401048 L188.169171,33.1401048 L188.169171,79.0210571 L181.114833,79.0210571 L181.204652,30.4715905 Z" id="Fill-10"></path>
                    <path d="M273.396938,30.4715905 L284.787601,30.4715905 C290.779728,30.4715905 295.786184,33.9452667 295.786184,40.3639143 C295.786184,47.9313429 290.211913,49.896219 286.413723,51.1020095 C293.31654,52.2523524 295.851791,55.5596857 295.851791,64.8334952 C295.851791,74.0885619 298.205841,77.5239714 300.327141,77.5239714 C301.961073,77.5239714 303.236509,76.4462571 303.691073,75.7043524 L304.638473,76.3525429 C304.361204,76.7875333 302.444536,79.8020095 297.999647,79.8020095 C293.574283,79.8020095 290.189263,75.7027905 290.189263,66.0705238 C290.189263,52.1438 286.424658,51.8829619 283.420784,51.8829619 L283.420784,50.8419524 C283.510604,50.8208667 289.864351,49.4612286 289.864351,41.6657619 C289.864351,34.2943524 285.437425,33.1401048 283.616044,33.1401048 L280.360676,33.1401048 L280.360676,79.0210571 L273.307118,79.0210571 L273.396938,30.4715905 Z" id="Fill-12"></path>
                    <path d="M235.330455,64.8327924 C235.330455,74.087859 237.684505,77.5232686 239.805805,77.5232686 C241.438956,77.5232686 242.713611,76.4455543 243.168175,75.7036495 L244.117137,76.35184 C243.838306,76.7868305 241.922419,79.8013067 237.478311,79.8013067 C233.051385,79.8013067 229.667927,75.7020876 229.667927,66.069821 L229.667927,64.118221 C229.667927,58.376659 229.387534,53.8986781 228.390929,50.965421 C227.620825,48.6967543 224.829394,47.0020876 223.632062,47.0020876 L222.134031,47.0028686 L222.134031,79.0211352 L215.079692,79.0211352 L215.170293,30.4716686 L222.134031,30.4716686 L222.134031,44.7896495 L234.891512,30.4716686 L239.448089,30.4716686 L226.047814,45.5096876 C232.950631,46.6592495 235.330455,51.8049448 235.330455,62.9467924 L235.330455,64.8327924 Z" id="Fill-14"></path>
                    <polygon id="Fill-16" points="125.631975 0.385087619 129.357528 0.385087619 129.357528 9.07552571 137.721668 9.07552571 137.721668 0.385087619 141.44644 0.385087619 141.44644 20.6414305 137.721668 20.6414305 137.721668 10.6436781 129.357528 10.6436781 129.357528 20.6414305 125.631975 20.6414305"></polygon>
                    <path d="M148.387372,0.385087619 L157.798103,0.385087619 L158.974347,3.32537333 C158.974347,3.32537333 157.077986,1.89544952 155.509661,1.89544952 L152.047318,1.89544952 L152.047318,9.00992571 L155.118361,9.00992571 C156.850704,9.00992571 157.340415,8.22663048 157.340415,8.22663048 L157.340415,11.4933543 C157.340415,11.4933543 156.817119,10.578859 155.118361,10.578859 L152.047318,10.578859 L152.047318,19.1310686 L156.359431,19.1310686 C159.632763,19.1310686 160.99958,17.3739257 160.99958,17.3739257 L159.366428,20.6414305 L148.387372,20.6414305 L148.387372,0.385087619 Z" id="Fill-18"></path>
                    <path d="M113.657798,1.89513714 L115.618985,1.89513714 C118.672845,1.89513714 121.108123,4.0443181 121.108123,4.0443181 L120.010764,0.386337143 L103.449626,0.386337143 L102.352267,4.0443181 C102.352267,4.0443181 104.788326,1.89513714 107.842186,1.89513714 L109.801811,1.89513714 L109.801811,20.6411181 L113.657798,20.6411181 L113.657798,1.89513714 Z" id="Fill-20"></path>
                    <polygon id="Fill-22" points="111.326945 79.0210571 111.326945 53.9579524 124.85453 30.4715905 120.482277 30.4715905 107.638101 52.7748095 94.7931436 30.4715905 90.4216718 30.4715905 103.948475 53.9579524 103.948475 79.0210571"></polygon>
                </g>
            </g>
        </g>
    </g>
</svg>