<svg xmlns="http://www.w3.org/2000/svg" viewBox="0 478.3 841.9 83.2">
  <path fill="#F15B46" d="M841 503.3V500l-.4.4-.4-1.1-1.2-1.2-.6-1.5-.6-.3-.1.3-.4-.6-.3-1.1-.4-.6-.4-.7-.7-.4-.4-.6-.8-.1-.7-.7-.3-.8-.1-1.7-.4-.3-.3-1.1v-1l-.3-.7-.6-.7h-.3l-.4.3-.6-1.1-.1-1.1-.3-.7v-.6l-.4-.1V481l-.4-.3-.3.3-.1.4v.8l-.4.6v.6l-.1.8-.3 1v.8l.1.6-.3.6v1.2l-.3.7-.1.6-.6.4-1-.4-.7-.7-.7-.1-.8-.6-.6-.3-1.4-1-.7-.3.6-1.8v-.6l.6-.1.6-1.1-.4-.6-.3.1-.4-.4-.6.8-.4-.3-.8-.1-1-.3-.6-.1-.6-.4-1.1-.1.7.4.3.6-.3.3-.7.1-.8-.1-.6.4-.3.4-.3.4.3.7-.7.3v.3l-.4.6.4.4v.6l-.4-.1-.7-.3-.4.3-.1.7-.1.1v-1.1l-.6-.1-.4-.6-.4-.3-.6.1-.3.6-.7.3-.4-.3-.6.4-.4 1.1-.4.3.4.6-.1.6-.8.3-.4-.1-.1.4.4.7-.1.7-.6-1-.3-.6-.4.4-.4.6.1.7.3.7-.8 1-.3 1-.6.4-.6.1-.7.4-.7.1-.4.8-.7-.3-.7.8-.7-.1-.7.6-.4.7h-.4l-.4.8-.3.6-.6-.4v.7l-.1.4.3.8-.1.8.1.6.6.8.6.3-.1 1-.7-.4.1.6-.4-.1.6 1 .4.6.6 1.1.6.7.8.4v1.1l.3.8 1.1 1.5v.8l.1 1-.4.3.3.7.6.3.8.4 1.9-.4 1.1-.7.4-.4.8-.4.8-.1.4.4.7-.4h.4l.7-.4.1-.8.1-.3 1.4-1 1 .1 1.8-.8.4-.4 1-.3 1 .1.4-.1.6.3.6.4h.7l.7.1.6 1 .4.1.1.4.7 1.2.8.4.1-.4.3-.6.4-.4.7-.3-.1-.6.1-.3.6-.3-.1 1-.6 1.5-.3.6h1l.1-1.1.3.4v.8l-.3.7h.4l.6-.3.6 1 .3.8.1.7 1.4 1.2h1.1l.7.4.6.4 1-.7.1-.4.1.6h.3l.8.7.8-.4.8-.7.6-.1.7.1.8-.4.3-.7v-.3l.1-1 .4-1.1.3-1 .3-.4.3-.7.7-1 .4-.3.4-.7.4-1.2v-1.1l.4-.4.1-.6.3-.4.4-2.6zm-6.9 17.2l-.7.3-.7.3-.7-.4-.6-.3h-.7v.7l.6.8v1.1l.4.8.4.6h.7l.1-.6.4-.3h.4v-.7l.3-.6v-1.4l.1-.3z"/>
  <path fill="#004563" d="M3.8 481.1L2 501.8h2.6c1.2-4.8 1.2-13.4 10.4-13.4h6.5v52.9l-9.7 1.2v3.2h35.3v-3.2l-2.6-.1c-6.8-1.1-7.1-.6-7.1-5.8v-48.1H44c9.1 0 9.3 8.6 10.5 13.4H57l-1.8-20.6-51.4-.2zm91 3.4l1.1.1c6.8.8 7.5.6 7.5 5.8V509H82.8v-23.3l8.6-1.2V481H58.6v3.5l2.1.1c6.8.7 7.9.6 7.9 5.8v50.8l-10 1.2v3.2h32.8v-3.2l-1.1-.1c-6.8-.8-7.5-.6-7.5-5.8v-21.2h20.6v26l-8.6 1.2v3.2h32.8v-3.2l-1.2-.1c-6.8-.7-7.2-.6-7.2-5.8v-50.7l8.6-1.2v-3.6H95l-.2 3.4zm69.9 54.5c-10.7 0-10.1-1-10.1-8.6v-15.2h11.2c3.3 0 7.3 0 7.2 8.6h2.5l1.8-21.9h-2.6c-.6 3.6-1.2 7.3-7.5 7.3h-12.5v-21.9h15.1c7.9 0 9.1 4.8 9.3 9.7h2.5l1.4-15.8h-52.8v3.5l1.2.1c6.8.7 7.2.6 7.2 5.8v50.8l-8.6 1.2v3.2h52.4l1.7-18.3h-2.5c-2.3 8.3-4.9 11.5-16.9 11.5zm95.1-1.4l-19-56.6h-13.6l-20.6 60.2-8 1.2v3.2h23.1v-3.2c-6.1-.7-8.4-1.4-6.9-6.1.3-1 1.7-5.4 3.3-9h22l4.8 14-9.7 1.1v3.2h34.1v-3.2l-3-.3c-2.9-.3-5.2-.3-6.5-4.5zm-39.5-17.5c4.2-12.2 9-26 9-26l8.6 26h-17.6zm104.8-39h-24.4v3.5l1.2.1c6.8.7 7.2.6 7.2 5.8v29.9c0 10.4-.6 19.1-14.1 19.1-11.5 0-14-7.3-14-18.1v-35.7l8.6-1.2v-3.3h-32.8v3.5l1.9.1c6.8.7 7.9.6 7.9 5.8v31.7c0 14.8 5.3 24.4 26.3 24.4 22.3 0 22.3-15.9 22.3-24.4v-36.6l9.7-1.2.2-3.4zm-.3 44.9zm33.3-18.4c-12-4.7-22.7-6.1-22.7-13 0-6.6 7.1-7.8 13.2-7.8 9.4 0 14.4 2.8 14.3 15h2.6s1.7-19.7 1.7-19.2c-4.8-1.2-11.4-2.9-17.9-2.9-11.1 0-25.9 3.5-25.9 19.4 0 9.1 3.2 15.1 11.2 18.3 5 1.9 9.3 3.6 11.4 4.3 7.3 2.4 10.9 5.1 10.9 9.8 0 4.2-2.5 8.9-11.6 8.9-6.2 0-10.4-1.9-12.2-2.6-5-2.1-5.5-8-5.5-11.2l-2.6-.3c-.1 1.1-1.4 15.5-1.4 15.9 3.6 2.5 11.9 5.1 21.3 5.1 9 0 24.2-4.8 24.2-21 0-9.8-4.3-16.1-11-18.7zm13.6-26.5l-1.8 20.6h2.6c1.2-4.8 1.2-13.4 10.4-13.4h6.8v52.9l-9.7 1.2v3.2h35.3v-3.2l-2.6-.1c-6.8-1.1-7.1-.6-7.1-5.8v-48.1h6.5c9.1 0 9.3 8.6 10.5 13.4h2.5l-1.8-20.6-51.6-.1zm223.5 57.7c-10.7 0-10.7-.7-10.7-8.3v-44.7l9.7-1.2v-3.5h-32.8v3.5l1.2.1c6.8.7 7.2.6 7.2 5.8v50.8l-7.3 1.2v3.2h47.9l1.9-21.9h-2.5c-2 9.7-5 15-14.6 15zm-108.6-.3c-3.6-18.3-8.7-21.7-17.9-23.4 6.8-.8 15.9-2.4 15.9-16.9 0-12.9-9.3-17.2-25.9-17.2h-32.5v3.5l1.2.1c6.8.7 7.2.6 7.2 5.8v50.8l-8.6 1.2v3.2h32.8v-3.2l-1.2-.1c-6.8-.7-7.2-.6-7.2-5.8v-17.6h4.2c6 0 9.4.3 11.2 3.5 2.1 3.9 3.3 8.2 4.4 13.8.6 2.4 1.5 7.1 1.9 9.4h19.6v-3.2c-3.5-.6-4.4-.2-5.1-3.9zm-27-27h-9V487h8.9c4 0 11.4 1.5 11.4 11.8 0 8.2-3.8 12.7-11.3 12.7zm93.3 26.1l-19-56.6h-13.6L499 541.2l-5.8 1.2v3.2h18.3v-3.2c-3.6 0-7.1-.6-5.7-4.7.3-.8 2.1-5.5 4-10.4h23.4l4.7 14-8.2 1.1v3.2h31.7v-3.2l-2.4-.1c-1.6-.4-4.7-.5-6.1-4.7zm-40.6-17.5c4.7-12.2 10-27.6 10-27.6l8.7 27.6h-18.7zm100.4-35.6l1.2.1c6.8.7 7.2.6 7.2 5.8v50.8l-8.4 1.2v3.2h32.8v-3.2l-1.2-.1c-6.8-.7-7.2-.6-7.2-5.8v-50.8l8.6-1.2V481h-32.8v3.5h-.2zm96 53.1l-19-56.6h-13.6l-20.9 60.2-8.3 1.2v3.2h24.2v-3.2c-7.3-.7-8.7-1.4-7.3-6.1.3-1 1.2-5.4 2.9-9h22l4.6 14-10 1.1v3.2h34.1v-3.2l-2.9-.3c-2.5-.3-4.4-.3-5.8-4.5zm-39.6-17.5c4.2-12.2 9-26 9-26l8.6 26h-17.6zm92.2-39v3.5l1.9.1c6.8.7 7.9.6 7.9 5.8v33.2L742.4 481h-24.9v3.5l2.8.1c6.8 1.1 6.8.6 6.8 5.8v50.8l-7.1 1.2v3.2h23.1v-3.2l-1.2-.1c-6.8-.7-7.2-.6-7.2-5.8V496l32.5 49.7h10.5v-59.9l8-1.2v-3.5h-24.4zm-201 68.6c-.2.3-.2.4-.2 5.1v5.9h-.8c-1.6-2.1-5.1-6.5-7-9v4.8c0 2.9 0 3.1.2 3.3.2.2.5.3 1.3.3v.3h-3.4v-.3c.5 0 .9 0 1.1-.3.2-.3.2-.4.2-5.1v-3.9c-.8-1.1-1-1.3-1.3-1.3v-.3h2.7c.4.5 1.3 1.7 1.8 2.3l4.5 5.7V553c0-2.9 0-3.1-.2-3.3-.2-.2-.5-.3-1.3-.3v-.3h3.4v.3c-.4.1-.8.1-1 .3zm11.4 10.7h-8.5v-.3c.5 0 .9 0 1.1-.3.2-.3.2-.4.2-5.1s0-4.8-.2-5c-.2-.2-.6-.2-1.1-.3v-.3h8.4c0 .7 0 2.1.1 2.7h-.4c-.4-1.6-.9-2.1-2.9-2.1h-1.7v4.5h1.4c1.7 0 1.9-.3 2-1.4h.4v3.6h-.4c-.1-1.5-.6-1.7-2.3-1.7h-1.2v1.7c0 2.6 0 2.8.3 3 .2.2.6.3 1.7.3 1.6 0 2.6-1 3.1-2.5h.4l-.4 3.2zm16.8-9.5c-.9 2.6-2.2 6.9-3.1 9.7h-.9c-.4-1.3-1.8-5.6-2.7-8.2-1.1 2.9-2.4 6.2-3.2 8.2h-.9c-.5-2.1-1.7-6.7-2.7-9.9-.3-1.1-.7-1.2-1.3-1.2v-.3h4.8v.3c-.9 0-1.3.2-1.3.8 0 .6.9 4 1.9 7.3 1.4-3.6 2.6-7.2 3-8.3h.8c.8 2.6 1.7 5.5 2.7 8.4 1.1-3.6 2-6.6 2-7.2 0-.5-.2-.8-1.1-.9v-.3h3.3v.3c-.6-.1-.9.1-1.3 1.3zm6.5 9.6c-1.1 0-2-.4-2.6-.4-.2 0-.4.1-.4.4h-.3c0-.9.1-2.5.1-3.3h.4c.2 1.1 1.1 2.8 2.9 2.8 1 0 2.2-.8 2.2-2 0-2.4-5.6-1.8-5.6-5.7 0-1.8 1.3-3.4 3.2-3.4.8 0 1.9.4 2.4.4.2 0 .3-.2.4-.4h.3v3.1h-.4c-.3-1.7-1.3-2.6-2.6-2.6-1.1 0-2.1.7-2.1 1.8 0 2.4 5.7 1.8 5.7 5.6-.1 1.9-1.5 3.7-3.6 3.7zm10.1-4.7c-.5 0-.7 0-1-.1v.8c0 2.9 0 3.1.2 3.3.2.2.7.3 1.4.3v.3h-5.1v-.3c.5 0 .9 0 1.1-.3.2-.3.2-.4.2-5.1s0-4.8-.2-5c-.2-.2-.6-.2-1.1-.3v-.3h2.4c.8 0 1.8-.1 2.7-.1 2.5 0 4 1.2 4 3.2 0 1.6-1.4 3.6-4.6 3.6zm-.1-6.2h-.9v5.6h.7c1.7 0 2.6-1.1 2.6-3 0-1.5-.6-2.6-2.4-2.6zm14.2 10.7h-2.7v-.3c.9 0 1.2-.2 1.2-.7 0-.3-.3-1.3-.8-2.6h-3.4c-.5 1.6-.7 2.4-.7 2.6 0 .6.5.8 1.1.8v.3h-3.4v-.3c.8 0 1.2-.2 1.6-1.2.7-1.6 2.7-7.1 3.6-9.8h.9c.8 2.5 2.7 7.5 3.5 9.8.4 1 .6 1.2 1.4 1.2v.3c-.5 0-1.5-.1-2.3-.1zm-3.9-8.5c-.7 1.8-1.2 3.2-1.5 4.3h3c-.4-1.2-1-2.8-1.5-4.3zm12.5 4c-.5 0-.7 0-1-.1v.8c0 2.9 0 3.1.2 3.3.2.2.7.3 1.4.3v.3h-5.1v-.3c.5 0 .9 0 1.1-.3.2-.3.2-.4.2-5.1s0-4.8-.2-5c-.2-.2-.6-.2-1.1-.3v-.3h2.4c.8 0 1.8-.1 2.7-.1 2.5 0 4 1.2 4 3.2-.1 1.6-1.5 3.6-4.6 3.6zm-.2-6.2h-.9v5.6h.7c1.7 0 2.6-1.1 2.6-3 0-1.5-.6-2.6-2.4-2.6zm14.8 10.8h-8.5v-.3c.5 0 .9 0 1.1-.3.2-.3.2-.4.2-5.1s0-4.8-.2-5c-.2-.2-.6-.2-1.1-.3v-.3h8.4c0 .7 0 2.1.1 2.7h-.4c-.4-1.6-.9-2.1-2.9-2.1h-1.7v4.5h1.4c1.7 0 1.9-.3 2-1.4h.4v3.6h-.4c-.1-1.5-.6-1.7-2.3-1.7h-1.2v1.7c0 2.6 0 2.8.3 3 .2.2.6.3 1.7.3 1.6 0 2.6-1 3.1-2.5h.4l-.4 3.2zm11.4-.1h-1.7c-2.3-4.5-1.8-5.6-4-5.6 0 4.7 0 4.8.2 5.1.2.2.6.3 1.2.3v.3h-4.9v-.3c.5 0 .9 0 1.1-.3.2-.3.2-.4.2-5.1s0-4.8-.2-5c-.2-.2-.6-.2-1.1-.3v-.3h2.4c.8 0 2.1-.1 3-.1 2.2 0 3.5 1.1 3.5 2.7 0 1.4-1 2.5-3 2.6 1.8.3 2.4 2.2 3.2 4 .7 1.3.8 1.6 1.6 1.6v.3c-.5.2-1 .1-1.5.1zm-4.7-10.7h-1v4.6h1c1.4 0 2.1-1 2.1-2.4 0-1.5-.9-2.2-2.1-2.2zm19.1 11c-3.7 0-5.7-2.4-5.7-5.8 0-2.8 2-5.8 5.7-5.8s5.7 2.4 5.7 5.8c0 3.5-2.5 5.8-5.7 5.8zm0-11.1c-1.9 0-3.3 2-3.3 5.3 0 3.8 1.3 5.3 3.2 5.3 2 0 3.4-1.9 3.4-5.3s-1.1-5.3-3.3-5.3zm15.4 2.4c-.3-1.6-.6-2.1-3-2.1h-1.4v4.5h1.1c1.8 0 1.9-.3 2.1-1.4h.4v3.6h-.4c-.2-1.6-.5-1.7-2.3-1.7h-.9v1.7c0 2.9 0 3.1.2 3.3.2.2.7.3 1.4.3v.3h-5.1v-.3c.5 0 .9 0 1.1-.3.2-.3.2-.4.2-5.1s0-4.8-.2-5c-.2-.2-.6-.2-1.1-.3v-.3h8.1c0 .7 0 2.1.1 2.7h-.3zm16.3.2c-.3-1.9-.7-2.3-2-2.3h-1.2v6.8c0 2.9 0 3.1.2 3.3.2.2.5.3 1.3.3v.3H693v-.3c.7 0 1.1-.1 1.3-.3.2-.2.2-.3.2-3.3v-6.8h-1.2c-1.3 0-1.7.4-2 2.3h-.4c0-.8.1-2.2 0-3.1h.3c0 .1 0 .1.1.2.2.1.5.1 4.3.1s4.1 0 4.3-.1c.1 0 .1-.1.1-.2h.3v3.1h-.4zm11.7 8.2h-2.4v-.3c.5 0 .9 0 1.1-.3.2-.3.2-.4.2-5.1v-.1h-5v.1c0 4.7 0 4.8.2 5.1.2.2.6.2 1.1.3v.3H702v-.3c.5 0 .9 0 1.1-.3.2-.3.2-.4.2-5.1s0-4.8-.2-5c-.2-.2-.6-.2-1.1-.3v-.3h4.8v.3c-.5 0-.9 0-1.1.3-.2.3-.2.4-.2 4.3h5c0-4 0-4.1-.2-4.3-.2-.2-.6-.2-1.1-.3v-.3h4.8v.3c-.5 0-.9 0-1.1.3-.2.3-.2.4-.2 5s0 4.8.2 5.1c.2.2.6.2 1.1.3v.3c-.5.1-1.7 0-2.4 0zm12.7.1h-8.5v-.3c.5 0 .9 0 1.1-.3.2-.3.2-.4.2-5.1s0-4.8-.2-5c-.2-.2-.6-.2-1.1-.3v-.3h8.4c0 .7 0 2.1.1 2.7h-.3c-.4-1.6-.9-2.1-2.9-2.1h-1.7v4.5h1.4c1.7 0 1.9-.3 2-1.4h.4v3.6h-.4c-.1-1.5-.6-1.7-2.3-1.7h-1.2v1.7c0 2.6 0 2.8.3 3 .2.2.6.3 1.7.3 1.6 0 2.6-1 3.1-2.5h.4c-.2.8-.4 2.4-.5 3.2zm16.3-9.9c-.5.8-1.6 2.7-2.7 4.6v1.4c0 2.9 0 3.1.2 3.3.2.2.5.3 1.3.3v.3h-5.2v-.3c.7 0 1.1-.1 1.3-.3.2-.2.2-.3.2-3.3v-1.2c-1.3-2.3-2.7-4.6-2.8-4.9-.5-.8-.6-.9-1.4-1v-.3h5.2v.3c-1.1 0-1.3.2-1.3.6 0 .4 1.1 2.4 2.2 4.4 1.4-2.5 2.1-3.8 2.1-4.3s-.3-.7-1.1-.7v-.3h3.4v.3c-.7.1-.8.2-1.4 1.1zm11.5 9.9h-8.5v-.3c.5 0 .9 0 1.1-.3.2-.3.2-.4.2-5.1s0-4.8-.2-5c-.2-.2-.6-.2-1.1-.3v-.3h8.4c0 .7 0 2.1.1 2.7h-.4c-.4-1.6-.9-2.1-2.9-2.1h-1.7v4.5h1.4c1.7 0 1.9-.3 2-1.4h.4v3.6h-.4c-.1-1.5-.6-1.7-2.3-1.7H747v1.7c0 2.6 0 2.8.3 3 .2.2.6.3 1.7.3 1.6 0 2.6-1 3.1-2.5h.4l-.4 3.2zm10.8-.1h-2.7v-.3c.9 0 1.2-.2 1.2-.7 0-.3-.3-1.3-.8-2.6h-3.4c-.5 1.6-.7 2.4-.7 2.6 0 .6.5.8 1.1.8v.3h-3.4v-.3c.8 0 1.2-.2 1.6-1.2.7-1.6 2.7-7.1 3.6-9.8h.9c.8 2.5 2.7 7.5 3.5 9.8.4 1 .6 1.2 1.4 1.2v.3c-.5 0-1.5-.1-2.3-.1zm-3.9-8.5c-.7 1.8-1.2 3.2-1.5 4.3h3c-.4-1.2-1-2.8-1.5-4.3zm17.2 8.5h-1.7c-2.3-4.5-1.8-5.6-4-5.6 0 4.7 0 4.8.2 5.1.2.2.6.3 1.2.3v.3H767v-.3c.5 0 .9 0 1.1-.3.2-.3.2-.4.2-5.1s0-4.8-.2-5c-.2-.2-.6-.2-1.1-.3v-.3h2.4c.8 0 2.1-.1 3-.1 2.2 0 3.5 1.1 3.5 2.7 0 1.4-1 2.5-3 2.6 1.8.3 2.4 2.2 3.2 4 .7 1.3.8 1.6 1.6 1.6v.3c-.5.2-1.1.1-1.5.1zm-4.7-10.7h-1v4.6h1c1.4 0 2.1-1 2.1-2.4-.1-1.5-.9-2.2-2.1-2.2z"/>
</svg>
