<svg xmlns="http://www.w3.org/2000/svg" viewBox="0 1 450 48">
  <path d="M118.1 14.9l-4.1 2.7 1.4 1.2v15.9c0 1.4-1.2 2.4-2.8 2.4h-.7V17.3l-3.5-2.3-4.4 2.9.2.4s.8-.5 1-.6c0 0 1.6 1.5 1.6 2.9V37c-1.8.5-3.6 2-3.6 5.3 0 1.5 1.3 3.5 3.7 3.9 1.3.2 5-.3 5.1-.4.5-.1 1.2-.2 3-.2 1.6-.1 2.6.6 3.1 1.1l.4.4c.5-.5.9-1.6.9-2.3 0-1.6-.7-2.7-1.9-3.4-.8-.5-1.9-.6-3.3-.6-.1 0-.5 0-1 .1-.6.1-1.5.2-2.3.2-1.1.1-2.3.3-3.1.4-.5.1-.9.1-1 .1-.6 0-1-.2-1.4-.5s-.4-.8-.4-1c.1-1.4 1.9-2 2.4-2.1h.6c1 .2 3.4.6 5.9.6.8 0 1.7-.2 2.5-.5s1.6-.8 2.2-1.4c.7-.6 1-1 1.4-1.7s.6-1.4.6-2.3v-16c-.1-.2-2.5-1.8-2.5-1.8"/>
  <path fill="none" stroke="#000" stroke-width=".767" stroke-miterlimit="3.864" d="M120.4 16.8l1.5-.9"/>
  <path d="M157 34.5l-.9.6s-.7-.6-.8-.7V16.9l-3-2-5.5 3.6-.2-.3c-.7-2-1.9-2.7-2.4-3.1l-5.2 3.5.2.3s.6-.4.9-.5c.5.5 1.4 2.1 1.4 2.7v13.3l-1.4 1.2 4 2.7 4-2.6-1.4-1.2V19.8l1.4-.9 2 2.2v13.7c0 1.6 1.3 2.8 2.2 3.5l4.9-3.2-.2-.6"/>
  <path fill="none" stroke="#000" stroke-width=".767" stroke-miterlimit="3.864" d="M155 17.1l1.4-.9M50.3 35.5l1.4-.9"/>
  <path d="M60.9 34.7s-1.3.8-1.5.9l-2.9-2.1V27l7.1-4.8-4.1-7.5-8.5 5.6v14.5c1.6 1.1 5.1 3.2 5.1 3.2l4.8-3.1v-.2zm-4.3-16.5l3.3 5.7-3.3 2.2v-7.9"/>
  <path fill="none" stroke="#000" stroke-width=".767" stroke-miterlimit="3.864" d="M158 35.6l1.4-.9"/>
  <path d="M268.9 15.5s-3.6 2.4-4.3 2.8c-.2-.3-.7-2.1-2.6-3.5-.6.4-5 3.3-5 3.3l.2.3s.6-.4.7-.5l.3.2c.6.6.9 1 .9 1.3v14.1l-1.5 1.2 4.1 3.2s4.4-3.1 4.3-3l-1.6-1.4V19.6l.9-.6 2 2.6s-.2.3-.3.5c-.3.4-.8 1.1-.8 2 0 .3.4 1.2 1 1.2h.1c.4 0 .5-.1.9-.2l.2-.1h-.2c-.3-.1-.5-.2-.7-.3h-.1c-.2-.2-.5-.6-.5-.9 0-.5.3-1.1.9-1.8 1-1.2 3.4-2.9 3.4-2.9l-2.3-3.6"/>
  <path fill="none" stroke="#000" stroke-width=".767" stroke-miterlimit="3.864" d="M448.6 18.4l1.4-.9m-15.6 18l1.4-.9"/>
  <path d="M99.1 33.5c-2.7-1.9-5.8-3.3-8.7-4.1h-.1l3.2-4.8c4.1.9 6.9 3.1 6.9 5.5 0 1-.4 2.3-1.3 3.4zm-7.4-15.6c-.6-.1-2.4-.4-2.8-.5-1.5-.3-8.8-2.5-8.8-5.7 0-3.7 4.7-3.7 7-3.7.5 0 5.8.5 8.4 3.9-.1.2-3.2 5-3.8 6zm16-4.9c.4-.4.8-1.1.8-1.5 0-.5-.2-.9-.5-1.3s-.8-.6-1.5-.6h-.4c-1.6 0-3.3 1-5.1 2.8-1.6 1.5-2.2 2.7-3.2 4.2-.8 1.3-1.2 1.9-1.4 2.2-.3 0-2.2-.3-3.8-.7.5-.9 2.1-3.6 3.9-6.2 1.3-1.9 2.9-3.6 3.7-4.5.1-.1.2-.2.4-.3.1-.1.3-.1.3-.2s-.2-.3-.2-.3c-.1 0-.2 0-.3.1-.1.1-.3.1-.5.1-.3 0-.6-.2-1.1-.7-1.4-1.1-3.9-3.2-8.3-3.2-7.6 0-12.1 6.4-12 10.7 0 2.7.5 5.6 1.9 6.8 1.4 1.3 3.6 2.2 7.6 3.1l.3.1-.6.7c-1 .9-1.8 1.7-3.8 1.8-1.2 0-1.8-.4-2.3-.8h-.1c.1.2.4.7.7 1.1.4.5.9.8 1.2.8.1 0 .6.1 1.4-.1 1.1-.3 2.3-1.2 3.4-2.4l.9-1 2.8.5c.3.1.6.1.9.2l-1.2 1.8c-1.5 2.2-2 2.9-2 2.9s-1-.1-1.3-.2c-.8-.2-2.1-.2-3.9-.2-3.5 0-8.2 1.2-11.1 4.1-.6.6-1.1 1.2-1.5 1.9-.7 1.2-1 2.4-1 3.8 0 1.7 1.1 3.8 4.4 3.8 4.3 0 8.1-4.1 10.1-6.2l.3-.4c.6-.6.9-1.1 1.1-1.3 2.3.6 6 2.2 9.3 4.3.7-.7 2.6-3 4.4-5.7 1-1.5 3.3-4.9 3.4-7.5.1-2.5-2.3-5.6-6.7-6.5.1-.3.4-.7 1.1-1.7 1.8-2.8 3.4-5.7 6.9-5.7.6-.1 1.9 0 2.6 1.4 0-.1 0-.1 0 0zM82 38.3c-.8.7-1.7 1.3-2.5 1.8-.9.5-1.7.8-2.6 1-.3.1-.5.1-.7.2-.4.1-.7.1-1.1.1h-.5c-1.8-.2-2.8-1.2-2.8-2.7 0-4 6.7-5.2 9.1-5.2h.5c1.1 0 1.9.1 4.1.5h.5c-1 1.3-2.1 2.5-3.2 3.5-.2.3-.5.6-.8.8m-50.5-9.8c-3.1 3.8-5.9 5-6.3 5.1V13.8c3.5-.2 6-2.2 6-5.5 0-.4-.1-.9-.3-1.5-1 1.3-2.7 1.6-3.7 1.6-2.5 0-5.3-.8-8.2-1.6C16 5.9 12.8 5 9.7 5 5.2 5.1 0 7.2 0 13.1c0 2.1 1.5 6.1 5 7.9h.1s-.8 1.9-.8 3.5c0 5.7 3.5 14.3 13.5 14.3 2.4 0 4.6-.5 6.6-1.6 1.6-.9 3-2 4.2-3.5 2.1-2.6 2.9-5.2 2.9-5.2zM15 33.2c.2-.1.4-.3.4-.3 3.3-2.2 4.9-4.2 4.9-6.2V13.3s1.7.5 4 .5v20.1c-3.5 1.2-7.6.3-9.3-.7zm.3-3.3c0 .8-.3 1.7-1 2.9l-.3-.2c-3.4-2.2-5.1-6.5-5.3-11.1-.2-3.3 1.6-7.7 4.1-10.4.3.1 1.7.4 2.4.8v18h.1zm-3.2-19C7 16 5.3 20.5 5.3 20.5l-.2-.1c-1.5-.7-2.2-2.6-2.2-4.2-.2-3.9 2.6-5.6 6.3-5.6 1.1 0 2.4.2 2.9.3m283.1 3.8c-.1.1-4.9 3.3-4.9 3.3l.2.4s.7-.4.8-.5l.3.2c.6.6.8 1 .8 1.3v15.9L295 38l5-2.7-.4-.5-.7.4-1.2-1.3v-17s-2.4-2.1-2.5-2.2m-2.9-5.6l3.2-2.5 2.8 2.7-3.2 2.3-2.8-2.5m-106.9 5.7l-4.1 2.7 1.4 1.2v15.9c0 1.4-1.2 2.4-2.8 2.4h-.7V17.2l-3.5-2.3-4.5 2.9.2.4s.8-.5 1-.6c0 0 1.6 1.5 1.6 2.9v16.7c-1.8.5-3.6 1.9-3.6 5.2 0 1.5 1.3 3.5 3.7 3.9 1.3.2 5-.3 5.1-.4.5-.1 1.2-.2 3-.3 1.6-.1 2.6.6 3.1 1.1l.4.4c.5-.5.9-1.6.9-2.3 0-1.6-.7-2.7-1.9-3.4-.8-.5-1.9-.6-3.3-.6-.1 0-.5 0-1 .1-.6.1-1.5.2-2.3.2-1.2.1-2.3.3-3.1.4-.5.1-.9.1-1 .1-.6 0-1.1-.2-1.5-.5s-.5-.8-.5-1c.1-1.4 1.8-2 2.4-2.1h.8c1.1.2 3.3.6 5.9.6.8 0 1.6-.2 2.5-.5.8-.3 1.6-.8 2.2-1.4.7-.6 1-1 1.4-1.7s.6-1.4.6-2.3v-16c0-.3-2.4-1.9-2.4-1.9m167.8 10c.3 0 .9 0 1.1.1.3.1.4.3.5.5.1.1.1 5.1.1 5.1 0 1-.1 1.4-.3 1.7 1.9-.9 4-2.8 4.7-4.1.8-1.5.7-4.6.6-7.8-.1-3.7-.2-7.8 1-10.9-1.4.9-2.2 1.6-3.3 2.7-1.1 1.1-1.9 2.1-2.1 2.7-.7 1.8-.6 4.6-.6 5.2-5.7.6-6.8 3.2-6.7 5.5 0 .1.1.5.1.8l.1.3c1.1-1.4 2.7-1.8 4.8-1.8M348.3 9c.2 0 1.2.2 3.4.7 1.2.3 2.7.6 2.9.6h1.2c1.2 0 3.8-1.5 6.9-4.1l.5-.4c-.7.3-1.6.6-2.5.6-1.3 0-2.8-.5-4.5-1-1.7-.6-3.5-1.1-5.1-1.1-3.5 0-5.8 2.1-5.8 5.2 0 .7.3 1.6.8 2.2-.1-.3-.2-.6-.2-.9.1-1.1.9-1.8 2.4-1.8m26.1-6.2c.8.4 1.8 1 2.4 2.2-1.7 1.2-3.9 2.9-4.6 3.3-1.3-1.5-3-3.5-4.3-3.6 0 0-.9 0-1.1.1-.3.2-.4.5-.4.8v11.6l4.9-3.1 3.9 3.9v13c0 3.7-2.6 7.6-7.7 11 1.6.5 4.5.9 7.8.2-1.9 2.8-4 4.2-6.4 4.2-.3 0-.9-.1-1.4-.3-2.8-1-4.7-.4-4.7-.4 2.4-1.9 4.1-3.8 5.2-5.7 1.2-1.9 1.8-4.3 1.8-6.4V20.9l-3.5-2.5v1.4c0 3.3 0 6.2-.7 7.7-.6 1.2-2.8 3.1-4.7 4.1.2-.4.3-.8.3-1.7V13.4c0-.3.1-1.7.1-2 .3-2.2.8-4.4 4.1-6.7 2.5-1.8 4.6-2.5 6.2-2.5 1 0 2 .2 2.8.6m-325 32.8c-.3.3-2.8 2-3.5 2.6-.9.6-1.7 1.4-2.3 2.3-.5.8-.8 1.7-.8 2.6 0 .3.1.7.3.9.5.5 1.4.7 1.9.7h.6c.3 0 .5 0 .7-.1v.1c-.1.3-.4.7-.9.9-.4.2-.9.4-1.3.4-1.7 0-2.3-1.5-2.3-2.5 0-1.5 1.9-4.1 3.1-5.3 0 0-2.2-1.8-2.2-3.2V20.7l-2-2.2-1.4.9v14.8c.1.1 1.4 1.2 1.4 1.2l-4 2.7-4.1-2.7 1.4-1.2V9.9c0-1.2-.1-2.9-.5-3.4-.2-.3-.6-.5-1-.7.4-1.1 1-1.6 2.1-1.6.3 0 1.1.1 1.6.4.4-.8 1.2-2.2 2.8-2.2.3 0 .9.2 1.3.5-1.2 1.3-1.1 4.2-1.1 5.9v9.7l5.5-3.6 3.2 2.1v15.9c.1 1.2.9 2 1.5 2.7m383.7-1.1l.2.3-5 3.2-3.9-2.7 1.3-1.2V9.3c0-1.2-.1-2.9-.5-3.4-.2-.3-.6-.5-1-.7.4-1.1 1-1.6 2.1-1.6.3 0 1 .1 1.5.4.7-.6 1.3-1.7 3-1.7.3 0 .9.2 1.3.5-.7.8-1 2-1 3.3-.1 6.8 0 28.3 0 28.3l1.1 1 .9-.9"/>
  <path fill="none" stroke="#000" stroke-width=".767" stroke-miterlimit="3.864" d="M47.7 17.1l1.4-.9m88 2.1l1.4-.9m-15.6 17.9l1.4-.9m63.4-17.7l1.4-.9m65.7 2.2l1.4-.9m-15.6 18.6l1.4-.9M297.4 17l1.4-.9m-7.4 19.8l1.4-.9m41-16.9l1.4-.9m85.3.2l1.4-.9"/>
  <path d="M435.4 5.4v6.7c1 1 3.4 3.2 4.5 4.2-1 .9-3 2-4.6 2.4-.1 0 .2.5.2 1v15.1l4.5 3.4c4.3-2.8 7.3-3.5 8.8-3.8V18.2L435.4 5.4zm5.7 12l2.7 2.6v15l-3.1-2.2v-15l.4-.4m-189.4-2.7c-1.9 1.3-7.3 3.6-10.2 4.2-.1 0 .2.5.2 1V35l4.5 3.4c4.3-2.8 7.3-3.5 8.8-3.8V17.8l-3.3-3.1zm-4.5 3.2l2.8 3V35l-3.1-2.2V18.1l.3-.2M123.9 5.3V12c1 1 3.4 3.2 4.5 4.2-1.1.9-3 2-4.6 2.4-.1 0 .2.5.2 1v15.1l4.5 3.4c4.3-2.8 7.3-3.5 8.8-3.8V18.1L123.9 5.3zm5.6 12l2.7 2.6v15l-3.1-2.2v-15l.4-.4"/>
  <path fill="none" stroke="#000" stroke-width=".606" stroke-miterlimit="3.864" d="M421.2 35.2l1.4-.9"/>
  <path fill="none" stroke="#000" stroke-width=".767" stroke-miterlimit="3.864" d="M265.9 34.9l1-.7"/>
  <path d="M421.2 34.7c-.3-.4-.5-.9-.5-1.3V17.2c-.3-.3-2.7-2.5-2.7-2.5l-4 3.3-3.1-3-4 3.2 2.8 3.1c-.4.6-1.6 2.9-.2 4.7.3.4.4.5.4.5l-.4.1c-2.5.8-4.4 3.6-4.4 5.7 0 1.7.8 4.6 3.2 5.8l7.1-4.4v.5c.1 1.2.8 2.5 2 4l4.2-3-.4-.5zm-6-2.1l-3.4 2.1c-1.1-.6-1.9-1.5-2.3-2.3-.5-.9-.7-2-.7-2.9 0 0 0-1.1.5-1.7.2-.3.5-.5.6-.6.2-.1.5-.2.7 0 1.3 1 2.7 1.1 4.5 1.1l.1 4.3zM414 18.8l1.1 1.2v7.5c-1.9.1-3.4-.3-4.1-1-2.9-2.7-.3-6.2 3-7.7M289.6 34.5l-.9.6s-.7-.6-.8-.7V16.9l-3-2-5.5 3.7-.2-.3c-.7-2-1.9-2.7-2.4-3.2l-5.2 3.5.2.4.9-.6c.5.6 1.4 2.1 1.4 2.7v13.3l-1.4 1.2 4 2.7 4-2.6-1.4-1.2V19.8l1.4-.9 2 2.2v13.7c0 1.6 1.3 2.8 2.2 3.6l4.9-3.2-.2-.7"/>
  <path fill="none" stroke="#000" stroke-width=".767" stroke-miterlimit="3.864" d="M287.6 17.1l1.5-.9"/>
  <path d="M318.2 34.5l-.9.6s-.7-.6-.8-.7V16.9l-3-2-5.5 3.7-.2-.3c-.7-2-1.9-2.7-2.4-3.2l-5.2 3.5.2.4.9-.6c.5.6 1.4 2.1 1.4 2.7v13.3l-1.4 1.2 4 2.7 4-2.6-1.4-1.2V19.8l1.4-.9 2 2.2v13.7c0 1.6 1.3 2.8 2.2 3.6l4.9-3.2-.2-.7"/>
  <path fill="none" stroke="#000" stroke-width=".767" stroke-miterlimit="3.864" d="M316.3 17.1l1.4-.9"/>
  <path d="M168.8 34.7l-1.5.9-2.9-2.1V27l7.1-4.8-4-7.5-8.5 5.6v14.5c1.6 1.1 5.1 3.2 5.1 3.2l4.8-3.1-.1-.2zm-4.3-16.5l3.3 5.7-3.3 2.2v-7.9"/>
  <path fill="none" stroke="#000" stroke-width=".767" stroke-miterlimit="3.864" d="M377.1 35.6l1.4-.9"/>
  <path d="M388 34.8l-1.5.9s-2.8-2.1-2.9-2.1v-6.5l7.1-4.8-4-7.5-8.5 5.6v14.5c1.6 1.1 5.1 3.2 5.1 3.2l4.9-3.1-.2-.2zm-4.4-16.5l3.3 5.7-3.3 2.2v-7.9m19.4-2.8s-3.6 2.4-4.3 2.8c-.2-.3-.7-2.1-2.6-3.5-.6.4-5 3.3-5 3.3l.2.3s.6-.4.7-.5l.3.2c.6.6.9 1 .9 1.3v14.1l-1.5 1.2 4.1 3.2s4.4-3.1 4.3-3l-1.6-1.4V19.6l.9-.6 2 2.6s-.2.3-.3.5c-.3.4-.8 1.1-.8 2 0 .3.4 1.1 1 1.1h.1c.4 0 .5-.1.9-.2l.2-.1h-.2c-.3-.1-.5-.2-.7-.3h-.1c-.2-.2-.5-.6-.5-.9 0-.5.3-1.1.9-1.8 1-1.2 3.4-2.9 3.4-2.9l-2.3-3.5"/>
  <path fill="none" stroke="#000" stroke-width=".767" stroke-miterlimit="3.864" d="M399.9 34.9l1-.7"/>
  <path d="M325.4 18.1l3.6 3.3v12.1l-1.1.9h-.1c-1.3-.5-2.9-2.8-2.9-4v-12l.5-.3zm8.7 14.1V18s-2.6-2.3-3.6-3.4c-.9.7-6.1 3-11.1 4.5.2.2.5.6.5.6v8.8c0 1.5 0 3.3.5 4.9.6 1.7 1.6 3.1 3.2 4l.4.2-8.2 6.9c.1.1.1.9.1.9.2 0 .4-.1.7-.2.6-.3 1.6-.7 3.2-.7 2.2 0 4.6 1.5 5.8 2.2.2.1.4.2.5.3.7-.2 3.3-2.2 5.6-4.3 1.3-1.2 2.4-2.3 3.2-3.3.9-1.1 1.4-2 1.4-2.6 0-.8-.5-1.4-1.1-2.1-.5-.7-1.1-1.5-1.1-2.5zm-3.8 11l-.7-.4c-1.6-.9-3.2-1.8-5-1.8h-.5c-.6.1-1.5.2-2.3.4l-.3-.6s6.4-5.4 7-5.9c.8.6 1.9 2 2.4 2.8s.7 1.6.7 2.6-.2 1.7-1.3 2.9M205.6 12.8c-.7-.7-1-1.4-1-1.9 0-1.3 1.1-2.7 3.2-2.7.4 0 1.5.2 2.9.5.6.1 1.3.3 1.4.3 1.7 0 4.4-1.8 6.1-3.6l.1-.1h-.1c-1.5 0-2.6-.5-3.7-.9-1.1-.5-2.3-.9-3.8-.9-3.3 0-7.1 2.5-7.1 5.9 0 .7.7 2.8 2 3.4m7.9 21.3c-1.3 0-1.9 0-3-.3-.8-.2-1.5-.3-2.2-.4h-1c-3.9 0-5.2 3.5-5.2 5.6 0 3.7 1.7 7.7 6.5 7.7 1.4 0 4.5-.8 4.5-3.7 0-.1-.3-1.8-1.1-1.8h-.6c.1.5.5 1.3.5 1.6 0 1.9-2.6 2.9-3.7 2.9-2.6 0-5-1.5-5-4.7 0-1.7.9-3.6 2.9-3.6 1.8 0 4 1.1 5.7 1.1 4-.1 4.8-2.7 4.9-8.1-.2.8-1.6 3.7-3.2 3.7m26.3.1s-.5.4-.8.4c-.1 0-.3-.1-.5-.2-.7-.5-1.5-1.5-1.5-2.9v-21c0-1.3.5-2.1.8-2.5v-.1c-.5-.4-1.2-.9-1.8-1.5-1.2-1-2.9-2.3-3.8-3 0 0-4.8 3.9-5.1 4.2l-2.2-1.8c-.9-.8-2.3-1.9-2.7-2.2-.7.4-10.7 8.9-10.7 8.9v7.1h-.3c-5.6.7-6 5-6 6.3 0 .2.2.8.3 1.3v.1l.1-.1c.4-.7.9-1.3 1.5-1.8.7-.5 1.4-.8 2.2-.9 1.8-.2 1.9-.1 2 0l.1.1v7.6c0 .8-.1 1.1-.4 1.5 1.9-1 4.2-2.9 4.8-4.2.8-1.6.7-1.6.7-4.9V24h4.6v8.8l-1.6 1.7 5.5 3.7 5.1-3.8-.7-.4s-.2.1-.3.2c-.1.1-.3.2-.5.2-.5 0-2.1-1.4-2.3-1.7V24h5v8.3c0 .6 0 1.6.6 3 .1.3 1.7 2.3 2.9 2.9.5-.3 5.2-3.7 5.2-3.7l-.2-.3zm-18.5-15h-4.6V9.6l1.9-1.6 2.7 2.3v8.9zm10.4 0h-5.2V9.5l1.8-1.5 3.3 3.1.1 8.1M358.9 32c-5.7.2-10.3 5.4-10.3 10.6 0 2.1.8 5.2 3.8 5.2 1.3 0 2.2-.6 2.2-2.3 0-.3-.1-.9-.3-1.2-.2.6-1.2 1.9-2.2 1.9-2.2-.1-2.8-1.8-2.8-3.3 0-3.2 2.3-6.9 6.2-6.9 2.1 0 4.2.9 6.3 3.3 0 0 4.5-3.3 4.5-3.4-2.5-3.2-4.1-4-7.4-3.9"/>
</svg>
